<svg width="64" height="64" viewBox="0 0 512 512" xmlns="http://www.w3.org/2000/svg" role="img" aria-label="PitchNote">
  <rect width="512" height="512" rx="116" fill="#6B1B2B"/>
  <path d="M116 116h280c22.091 0 40 17.909 40 40v200c0 22.091-17.909 40-40 40H116c-22.091 0-40-17.909-40-40V156c0-22.091 17.909-40 40-40Z" fill="#F8F8F4"/>
  <path d="M112 166h288v180H112V166Z" fill="#7FB069" opacity=".16"/>
  <path d="M150 321h84M150 288h126M150 222h92M150 183h138" stroke="#6B1B2B" stroke-width="18" stroke-linecap="round"/>
  <path d="M280 314c22-46 45-67 70-63 22 4 36 22 50 54" fill="none" stroke="#D9A441" stroke-width="18" stroke-linecap="round" stroke-linejoin="round"/>
</svg>
